<svg width="70" height="70" viewBox="0 0 70 70" fill="none" xmlns="http://www.w3.org/2000/svg">
<path d="M42.3522 57.9058C42.3522 61.9269 39.0949 65.1842 35.074 65.1842C31.0531 65.1842 27.7958 61.9269 27.7958 57.9058C27.7958 53.8851 31.0531 50.6278 35.074 50.6278C39.0949 50.6278 42.3522 53.8851 42.3522 57.9058ZM46.5055 32.3466C44.2146 31.3803 41.8379 30.7102 39.3988 30.3517L51.7656 42.7106L55.841 38.6351C53.1448 35.9389 50.0044 33.8193 46.5055 32.3466ZM22.5903 32.8064C19.3564 34.3259 16.4498 36.3986 13.9562 38.9857L22.9176 47.6511C25.5203 44.9548 28.8476 43.2483 32.4711 42.6873L22.5903 32.8064ZM7.7613 17.9694C4.9793 19.8085 2.38448 21.9202 0 24.3126L8.81328 33.1258C11.2134 30.7257 13.9018 28.6841 16.824 27.0399L7.7613 17.9694ZM54.2825 13.6368C48.1964 11.0809 41.7287 9.77957 35.074 9.77957C30.2193 9.77957 25.4737 10.4731 20.8994 11.8368L31.4815 22.4189C32.6661 22.302 33.8661 22.2476 35.0738 22.2476C44.9314 22.2476 54.2123 26.0659 61.2177 33.0012L69.9999 24.1489C65.4492 19.6448 60.1658 16.107 54.2825 13.6368ZM4.23901 9.88869L52.9499 58.5995L58.0229 53.5265L9.31203 4.81567L4.23901 9.88869Z" fill="#343434"/>
</svg>
