<svg width="70" height="70" viewBox="0 0 70 70" fill="none" xmlns="http://www.w3.org/2000/svg">
<g clip-path="url(#clip0_2351_715)">
<path d="M35 65.625C26.8777 65.625 19.0882 62.3984 13.3449 56.6551C7.60155 50.9118 4.375 43.1223 4.375 35C4.375 26.8777 7.60155 19.0882 13.3449 13.3449C19.0882 7.60155 26.8777 4.375 35 4.375C43.1223 4.375 50.9118 7.60155 56.6551 13.3449C62.3984 19.0882 65.625 26.8777 65.625 35C65.625 43.1223 62.3984 50.9118 56.6551 56.6551C50.9118 62.3984 43.1223 65.625 35 65.625ZM35 70C44.2826 70 53.185 66.3125 59.7487 59.7487C66.3125 53.185 70 44.2826 70 35C70 25.7174 66.3125 16.815 59.7487 10.2513C53.185 3.68749 44.2826 0 35 0C25.7174 0 16.815 3.68749 10.2513 10.2513C3.68749 16.815 0 25.7174 0 35C0 44.2826 3.68749 53.185 10.2513 59.7487C16.815 66.3125 25.7174 70 35 70Z" fill="#343434"/>
<path d="M30.6337 48.1249C30.6337 47.5504 30.7469 46.9815 30.9668 46.4507C31.1866 45.9199 31.5089 45.4376 31.9152 45.0313C32.3214 44.6251 32.8037 44.3028 33.3345 44.0829C33.8653 43.8631 34.4342 43.7499 35.0087 43.7499C35.5833 43.7499 36.1522 43.8631 36.683 44.0829C37.2138 44.3028 37.6961 44.6251 38.1023 45.0313C38.5086 45.4376 38.8309 45.9199 39.0507 46.4507C39.2706 46.9815 39.3837 47.5504 39.3837 48.1249C39.3837 49.2852 38.9228 50.398 38.1023 51.2185C37.2819 52.039 36.1691 52.4999 35.0087 52.4999C33.8484 52.4999 32.7356 52.039 31.9152 51.2185C31.0947 50.398 30.6337 49.2852 30.6337 48.1249ZM31.0625 21.853C31.0042 21.3011 31.0627 20.7431 31.234 20.2151C31.4053 19.6872 31.6857 19.2013 32.057 18.7887C32.4283 18.3762 32.8822 18.0463 33.3892 17.8205C33.8962 17.5947 34.445 17.478 35 17.478C35.555 17.478 36.1038 17.5947 36.6108 17.8205C37.1178 18.0463 37.5717 18.3762 37.943 18.7887C38.3143 19.2013 38.5947 19.6872 38.766 20.2151C38.9373 20.7431 38.9958 21.3011 38.9375 21.853L37.4062 37.1962C37.3548 37.7989 37.079 38.3604 36.6334 38.7696C36.1878 39.1787 35.6049 39.4058 35 39.4058C34.3951 39.4058 33.8121 39.1787 33.3666 38.7696C32.921 38.3604 32.6452 37.7989 32.5937 37.1962L31.0625 21.853Z" fill="#343434"/>
</g>
<defs>
<clipPath id="clip0_2351_715">
<rect width="70" height="70" fill="white"/>
</clipPath>
</defs>
</svg>
