<svg width="24" height="24" viewBox="0 0 24 24" fill="none" xmlns="http://www.w3.org/2000/svg">
<rect width="24" height="24" rx="12" fill="#D5D5D5"/>
<path d="M16.5874 7.41987C16.52 7.35237 16.44 7.29881 16.3519 7.26227C16.2638 7.22573 16.1694 7.20692 16.074 7.20692C15.9787 7.20692 15.8842 7.22573 15.7961 7.26227C15.7081 7.29881 15.628 7.35237 15.5607 7.41987L12 10.9733L8.43934 7.41259C8.37193 7.34517 8.2919 7.2917 8.20382 7.25521C8.11574 7.21873 8.02133 7.19995 7.926 7.19995C7.83066 7.19995 7.73625 7.21873 7.64817 7.25521C7.56009 7.2917 7.48006 7.34517 7.41265 7.41259C7.34523 7.48 7.29176 7.56003 7.25527 7.64811C7.21879 7.73619 7.20001 7.8306 7.20001 7.92593C7.20001 8.02127 7.21879 8.11568 7.25527 8.20376C7.29176 8.29184 7.34523 8.37187 7.41265 8.43928L10.9733 12L7.41265 15.5606C7.34523 15.628 7.29176 15.7081 7.25527 15.7961C7.21879 15.8842 7.20001 15.9786 7.20001 16.074C7.20001 16.1693 7.21879 16.2637 7.25527 16.3518C7.29176 16.4399 7.34523 16.5199 7.41265 16.5873C7.48006 16.6547 7.56009 16.7082 7.64817 16.7447C7.73625 16.7812 7.83066 16.8 7.926 16.8C8.02133 16.8 8.11574 16.7812 8.20382 16.7447C8.2919 16.7082 8.37193 16.6547 8.43934 16.5873L12 13.0266L15.5607 16.5873C15.6281 16.6547 15.7081 16.7082 15.7962 16.7447C15.8843 16.7812 15.9787 16.8 16.074 16.8C16.1694 16.8 16.2638 16.7812 16.3519 16.7447C16.4399 16.7082 16.52 16.6547 16.5874 16.5873C16.6548 16.5199 16.7083 16.4399 16.7448 16.3518C16.7812 16.2637 16.8 16.1693 16.8 16.074C16.8 15.9786 16.7812 15.8842 16.7448 15.7961C16.7083 15.7081 16.6548 15.628 16.5874 15.5606L13.0267 12L16.5874 8.43928C16.8641 8.16258 16.8641 7.69657 16.5874 7.41987Z" fill="#626262"/>
</svg>
