<svg width="300" height="300" viewBox="0 0 300 300" fill="none" xmlns="http://www.w3.org/2000/svg">
<path d="M150 18.75C184.81 18.75 218.194 32.5781 242.808 57.1922C267.422 81.8064 281.25 115.19 281.25 150C281.25 184.81 267.422 218.194 242.808 242.808C218.194 267.422 184.81 281.25 150 281.25C115.19 281.25 81.8064 267.422 57.1922 242.808C32.5781 218.194 18.75 184.81 18.75 150C18.75 115.19 32.5781 81.8064 57.1922 57.1922C81.8064 32.5781 115.19 18.75 150 18.75ZM133.65 175.894L104.494 146.719C103.449 145.674 102.208 144.844 100.842 144.279C99.4763 143.713 98.0126 143.422 96.5344 143.422C95.0562 143.422 93.5925 143.713 92.2268 144.279C90.8611 144.844 89.6202 145.674 88.575 146.719C86.464 148.83 85.2781 151.693 85.2781 154.678C85.2781 157.663 86.464 160.527 88.575 162.637L125.7 199.763C126.742 200.813 127.982 201.647 129.348 202.216C130.714 202.785 132.18 203.078 133.659 203.078C135.139 203.078 136.604 202.785 137.971 202.216C139.337 201.647 140.576 200.813 141.619 199.763L218.494 122.869C219.553 121.828 220.396 120.588 220.973 119.219C221.551 117.851 221.851 116.382 221.858 114.897C221.865 113.412 221.578 111.94 221.013 110.567C220.449 109.193 219.618 107.945 218.568 106.895C217.519 105.844 216.271 105.011 214.899 104.445C213.526 103.879 212.054 103.59 210.569 103.595C209.084 103.6 207.615 103.899 206.246 104.475C204.877 105.051 203.636 105.892 202.594 106.95L133.65 175.894Z" fill="#65B449"/>
</svg>
